<?xml version="1.0" encoding="UTF-8"?>
<svg xmlns="http://www.w3.org/2000/svg" id="artwork" width="64" height="64" viewBox="0 0 64 64">
  <title>review</title>
  <path d="M28.3,33.385A16.484,16.484,0,0,0,2.5,46.949Z" style="fill:#ed147d"></path>
  <path d="M19,41.666,2.811,50.176a16.494,16.494,0,0,0,32.373,0ZM19,57.5a10.433,10.433,0,0,1-7.424-3.071A1.5,1.5,0,0,1,13.694,52.3,7.451,7.451,0,0,0,19,54.5a1.5,1.5,0,0,1,0,3Z" style="fill:#ed147d"></path>
  <path d="M35.495,46.949A16.441,16.441,0,0,0,30.78,35.471l-8.558,4.5Z" style="fill:#ed147d"></path>
  <path d="M44.926,33.746l-1.48-8.63,6.27-6.111a1.5,1.5,0,0,0-.831-2.559L40.22,15.188,36.345,7.336a1.5,1.5,0,0,0-2.69,0L29.78,15.188l-8.665,1.258a1.5,1.5,0,0,0-.831,2.559l6.27,6.111-.631,3.677a19.414,19.414,0,0,1,2.815,1.338l.906-5.284a1.5,1.5,0,0,0-.432-1.328l-4.657-4.54,6.437-.936a1.5,1.5,0,0,0,1.129-.82L35,11.39l2.879,5.833a1.5,1.5,0,0,0,1.129.82l6.437.936-4.657,4.54a1.5,1.5,0,0,0-.432,1.328l1.1,6.411L35.7,28.23a1.507,1.507,0,0,0-1.4,0l-4.66,2.451a19.582,19.582,0,0,1,2.583,2.031L35,31.253l7.75,4.075A1.5,1.5,0,0,0,44.926,33.746Z"></path>
  <path d="M58,.5H12A3.5,3.5,0,0,0,8.5,4V30.6A19.539,19.539,0,0,1,11.5,29V4a.5.5,0,0,1,.5-.5H58a.5.5,0,0,1,.5.5V38a.5.5,0,0,1-.5.5H52a1.5,1.5,0,0,0-1.061.439L43.5,46.379V40A1.5,1.5,0,0,0,42,38.5H36.523a19.351,19.351,0,0,1,1.174,3h2.8V50a1.5,1.5,0,0,0,2.561,1.061l9.56-9.561H58A3.5,3.5,0,0,0,61.5,38V4A3.5,3.5,0,0,0,58,.5Z"></path>
</svg>
