<?xml version="1.0" encoding="UTF-8"?>
<svg xmlns="http://www.w3.org/2000/svg" id="artwork" width="64" height="64" viewBox="0 0 64 64">
  <title>network</title>
  <path d="M20,48.5a13.465,13.465,0,0,1-10-4.432A13.244,13.244,0,0,1,.575,48.475a16.491,16.491,0,0,0,32.849.025Zm-3,9A4.505,4.505,0,0,1,12.5,53a1.5,1.5,0,0,1,3,0,1.5,1.5,0,0,0,3,0,1.5,1.5,0,0,1,3,0A4.505,4.505,0,0,1,17,57.5Z" style="fill:#ed147d"></path>
  <path d="M8.75,40.8a1.56,1.56,0,0,1,2.5,0A10.485,10.485,0,0,0,20,45.5H33.424A16.492,16.492,0,0,0,.577,45.482,10.558,10.558,0,0,0,8.75,40.8Z" style="fill:#ed147d"></path>
  <path d="M63.493,16.87C63.7,8.585,56.515.5,47,.5A16.5,16.5,0,1,0,63.493,16.87ZM47,3.5A13.509,13.509,0,0,1,60.308,14.823,10.553,10.553,0,0,1,55.25,10.8a1.56,1.56,0,0,0-2.5,0A10.485,10.485,0,0,1,44,15.5H33.588A13.516,13.516,0,0,1,47,3.5Zm-13.412,15H44a13.468,13.468,0,0,0,10-4.437,13.566,13.566,0,0,0,6.446,3.956,13.49,13.49,0,0,1-26.86.481Z"></path>
  <path d="M60.061,32.939a1.506,1.506,0,0,0-2.122,0l-3,3a1.5,1.5,0,0,0,2.122,2.122l.439-.44V40.5a5.006,5.006,0,0,1-5,5H37a1.5,1.5,0,0,0,0,3H52.5a8.009,8.009,0,0,0,8-8V37.621l.439.44a1.5,1.5,0,0,0,2.122-2.122Z"></path>
  <path d="M27,15.5H11.5a8.009,8.009,0,0,0-8,8v2.879l-.439-.44A1.5,1.5,0,0,0,.939,28.061l3,3a1.506,1.506,0,0,0,2.122,0l3-3a1.5,1.5,0,0,0-2.122-2.122l-.439.44V23.5a5.006,5.006,0,0,1,5-5H27a1.5,1.5,0,0,0,0-3Z"></path>
  <path d="M51.5,23a1.5,1.5,0,0,0-3,0,1.5,1.5,0,0,1-3,0,1.5,1.5,0,0,0-3,0,4.5,4.5,0,0,0,9,0Z"></path>
</svg>
