<?xml version="1.0" encoding="UTF-8"?>
<svg xmlns="http://www.w3.org/2000/svg" id="artwork" width="64" height="64" viewBox="0 0 64 64">
  <title>laptop</title>
  <path d="M63.342,52.829,54.5,35.146V5.5A3.5,3.5,0,0,0,51,2H13A3.5,3.5,0,0,0,9.5,5.5V35.146L.658,52.829A1.558,1.558,0,0,0,.5,53.5v5A3.5,3.5,0,0,0,4,62H60a3.5,3.5,0,0,0,3.5-3.5v-5A1.55,1.55,0,0,0,63.342,52.829ZM12.5,5.5A.5.5,0,0,1,13,5H51a.5.5,0,0,1,.5.5V34h-39ZM11.928,37H52.073l7.5,15H43.219l-2.585-5.171A1.5,1.5,0,0,0,39.292,46H24.708a1.5,1.5,0,0,0-1.341.829L20.781,52H4.427ZM39.865,52H24.136l1.5-3H38.365ZM60.5,58.5a.5.5,0,0,1-.5.5H4a.5.5,0,0,1-.5-.5V55h57Z"></path>
  <path d="M47,8H17a1.5,1.5,0,0,0-1.5,1.5v20A1.5,1.5,0,0,0,17,31H47a1.5,1.5,0,0,0,1.5-1.5V9.5A1.5,1.5,0,0,0,47,8ZM30.5,26.5a1.5,1.5,0,0,1-3,0V16.122l-1.439,1.439A1.5,1.5,0,0,1,23.94,15.44l4-4A1.5,1.5,0,0,1,30.5,12.5Zm9.561-2.939-4,4A1.5,1.5,0,0,1,33.5,26.5v-14a1.5,1.5,0,0,1,3,0V22.879l1.44-1.44a1.5,1.5,0,1,1,2.121,2.122Z" style="fill:#ed147d"></path>
</svg>
