<?xml version="1.0" encoding="UTF-8"?>
<svg xmlns="http://www.w3.org/2000/svg" id="artwork" width="64" height="64" viewBox="0 0 64 64">
  <title>chat</title>
  <path d="M50.5,34.862V50a.5.5,0,0,1-.5.5H22A1.5,1.5,0,0,0,20.5,52v6.378l-7.439-7.439A1.5,1.5,0,0,0,12,50.5H4a.5.5,0,0,1-.5-.5V16a.5.5,0,0,1,.5-.5H27.5v-3H4A3.5,3.5,0,0,0,.5,16V50A3.5,3.5,0,0,0,4,53.5h7.379l9.56,9.56A1.5,1.5,0,0,0,23.5,62V53.5H50A3.5,3.5,0,0,0,53.5,50V31.862Z"></path>
  <circle cx="14.397" cy="44.477" r="2" transform="translate(-9.834 4.498) rotate(-13.283)"></circle>
  <path d="M14.4,39.982a1.5,1.5,0,0,1-1.5-1.5v-5.69a1.5,1.5,0,0,1,1.5-1.5,4.9,4.9,0,0,0,4.89-5.159,4.9,4.9,0,0,0-9.74-.422A4.977,4.977,0,0,0,9.5,26.4a1.5,1.5,0,0,1-3,0,7.9,7.9,0,1,1,9.4,7.751v4.335A1.5,1.5,0,0,1,14.4,39.982Z"></path>
  <path d="M46,44.832H22a1.5,1.5,0,1,1,0-3H46a1.5,1.5,0,0,1,0,3Z"></path>
  <path d="M41,33.165H27a1.5,1.5,0,0,0,0,3H41a1.5,1.5,0,0,0,0-3Z"></path>
  <path d="M61,.5H33A2.5,2.5,0,0,0,30.5,3V25A2.5,2.5,0,0,0,33,27.5H45.5V32a1.5,1.5,0,0,0,2.561,1.061l5.56-5.561H61A2.5,2.5,0,0,0,63.5,25V3A2.5,2.5,0,0,0,61,.5ZM37.75,16a2,2,0,1,1,2-2A2,2,0,0,1,37.75,16ZM47,16a2,2,0,1,1,2-2A2,2,0,0,1,47,16Zm9.25,0a2,2,0,1,1,2-2A2,2,0,0,1,56.25,16Z" style="fill:#ed147d"></path>
</svg>
